<svg id="Layer_1" data-name="Layer 1" xmlns="http://www.w3.org/2000/svg" viewBox="0 0 400 125"><defs><style>.cls-1{fill:#231f20;}.cls-2{fill:#79242f;}.cls-3{fill:#221f1f;}.cls-4{fill:none;}</style></defs><title>1</title><g id="_Group_" data-name="&lt;Group&gt;"><path id="_Compound_Path_" data-name="&lt;Compound Path&gt;" class="cls-1" d="M100.71,100.4c1.58-.05,2.71.66,2.71,2a2.88,2.88,0,0,1-1,1.73,2.1,2.1,0,0,1,1.43,2.11c0,1.35-.81,2.58-3.12,2.58H98.87v-7.17l-.16-1.17Zm-.7,3.42h.91a5.69,5.69,0,0,1,.93.09,2.17,2.17,0,0,0,.48-1.28c0-.89-.54-1.3-1.77-1.3l-.55,0Zm0,4.07h.93c1.35,0,1.76-.79,1.76-1.56,0-1.15-.68-1.57-2-1.57H100Z"/><path id="_Compound_Path_2" data-name="&lt;Compound Path&gt;" class="cls-1" d="M111.88,105.39a3.47,3.47,0,0,1-3.46,3.57,3.21,3.21,0,0,1-3.31-3.44,3.47,3.47,0,0,1,3.45-3.57,3.12,3.12,0,0,1,3.32,3.44m-3.37,2.75c1.33,0,2.2-1.2,2.2-2.68s-.87-2.69-2.2-2.69a2.73,2.73,0,0,0,0,5.37"/><path id="_Path_" data-name="&lt;Path&gt;" class="cls-1" d="M118.7,103.05l-.15-1h1.17v4.06a2.83,2.83,0,0,1-3.11,2.83,2.57,2.57,0,0,1-2.78-2.58v-3.32l-.17-1h1.24v4.23a1.82,1.82,0,0,0,1.92,1.83,1.85,1.85,0,0,0,1.88-1.9Z"/><polygon id="_Path_2" data-name="&lt;Path&gt;" class="cls-1" points="121.12 102.07 127.06 102.07 127.06 102.93 124.59 102.93 124.59 107.98 124.72 108.8 123.52 108.8 123.52 102.93 121.12 102.93 121.12 102.07"/><polygon id="_Path_3" data-name="&lt;Path&gt;" class="cls-1" points="129.62 107.98 129.75 108.8 128.54 108.8 128.54 103.06 128.38 102.07 129.62 102.07 129.62 107.98"/><path id="_Compound_Path_3" data-name="&lt;Compound Path&gt;" class="cls-1" d="M138.36,105.39a3.52,3.52,0,0,1-2.84,3.52c.79.31,1.6.6,2.38.89l-.47,1-2.77-1.17V109a3.2,3.2,0,0,1-3.07-3.43A3.47,3.47,0,0,1,135,102a3.12,3.12,0,0,1,3.32,3.44M135,108.14c1.33,0,2.2-1.2,2.2-2.68s-.87-2.69-2.2-2.69a2.73,2.73,0,0,0,0,5.37"/><path id="_Path_4" data-name="&lt;Path&gt;" class="cls-1" d="M145.18,103.05l-.15-1h1.17v4.06a2.83,2.83,0,0,1-3.11,2.83,2.57,2.57,0,0,1-2.78-2.58v-3.32l-.17-1h1.24v4.23a1.82,1.82,0,0,0,1.92,1.83,1.85,1.85,0,0,0,1.88-1.9Z"/><polygon id="_Path_5" data-name="&lt;Path&gt;" class="cls-1" points="148.96 103.06 148.79 102.07 152.76 102.07 152.76 102.92 150.03 102.92 150.03 104.92 152.44 104.92 152.17 105.77 150.03 105.77 150.03 107.95 152.91 107.95 152.64 108.8 148.96 108.8 148.96 103.06"/><path id="_Path_6" data-name="&lt;Path&gt;" class="cls-1" d="M163.61,102.21a2.86,2.86,0,0,0-2.13-1c-1.63,0-2.76,1.67-2.76,3.43a3.07,3.07,0,0,0,2.85,3.31,4.88,4.88,0,0,0,2.46-1.07l.28.94a4.79,4.79,0,0,1-2.94,1.1,3.86,3.86,0,0,1-3.87-4.15,4.21,4.21,0,0,1,4-4.5,3.8,3.8,0,0,1,2.66,1Z"/><path id="_Compound_Path_4" data-name="&lt;Compound Path&gt;" class="cls-1" d="M167.66,102.07l.65-.14,2.32,5.68.6,1.19H170l-.73-1.75h-2.76l-.74,1.75h-1Zm-.84,4.12h2.09L168,104l-.12-.38-.14.38Z"/><polygon id="_Path_7" data-name="&lt;Path&gt;" class="cls-1" points="172.54 102.07 176.5 102.07 176.5 102.92 173.78 102.92 173.78 104.92 176.18 104.92 175.92 105.77 173.78 105.77 173.78 107.98 173.91 108.8 172.7 108.8 172.7 103.06 172.54 102.07"/><polygon id="_Path_8" data-name="&lt;Path&gt;" class="cls-1" points="178.43 103.06 178.26 102.07 182.22 102.07 182.22 102.92 179.5 102.92 179.5 104.92 181.91 104.92 181.64 105.77 179.5 105.77 179.5 107.95 182.38 107.95 182.11 108.8 178.43 108.8 178.43 103.06"/><path id="_Compound_Path_5" data-name="&lt;Compound Path&gt;" class="cls-1" d="M189.59,100.46l.78-.16,2.58,7.11.64,1.39H192.2l-.8-2.18h-3.1l-.82,2.18h-1.1Zm-.94,5.2h2.44L190,102.74l-.13-.49-.15.51Z"/><polygon id="_Path_9" data-name="&lt;Path&gt;" class="cls-1" points="201.13 107.99 201.21 108.8 200.6 108.8 196.37 104.55 195.93 103.96 195.93 107.98 196.05 108.8 194.96 108.8 194.96 103.05 194.81 102.07 195.52 102.07 199.73 106.3 200.17 106.9 200.17 103.05 200.02 102.07 201.13 102.07 201.13 107.99"/><path id="_Compound_Path_6" data-name="&lt;Compound Path&gt;" class="cls-1" d="M206.54,102.07a3.06,3.06,0,0,1,3.17,3.32,3.32,3.32,0,0,1-3.51,3.41h-2.37v-5.74l-.17-1Zm-1.63.83V108h1.43a2.32,2.32,0,0,0,2.2-2.52,2.35,2.35,0,0,0-2.2-2.54Z"/><path id="_Compound_Path_7" data-name="&lt;Compound Path&gt;" class="cls-1" d="M216.89,100.46l.77-.16,2.58,7.11.64,1.39h-1.39l-.79-2.18h-3.11l-.82,2.18h-1.1Zm-1,5.2h2.45l-1-2.92-.13-.49-.15.51Z"/><path id="_Compound_Path_8" data-name="&lt;Compound Path&gt;" class="cls-1" d="M226.37,108.8l-2-2.47h-1V108l.13.82h-1.21v-5.74l-.16-1h2.15c1.27,0,2.5.65,2.5,2.05a2.25,2.25,0,0,1-1.4,1.93l2.35,2.75Zm-2.24-3.31a1.5,1.5,0,0,0,1.56-1.37c0-.79-.73-1.2-1.56-1.2h-.71v2.57Z"/><polygon id="_Path_10" data-name="&lt;Path&gt;" class="cls-1" points="227.97 102.07 233.91 102.07 233.91 102.93 231.44 102.93 231.44 107.98 231.56 108.8 230.36 108.8 230.36 102.93 227.97 102.93 227.97 102.07"/><polygon id="_Path_11" data-name="&lt;Path&gt;" class="cls-1" points="236.46 107.98 236.59 108.8 235.38 108.8 235.38 103.06 235.22 102.07 236.46 102.07 236.46 107.98"/><path id="_Path_12" data-name="&lt;Path&gt;" class="cls-1" d="M238.54,108.17s.13-1,.13-1a3,3,0,0,0,2,.91c.65,0,1.16-.34,1.16-1,0-1.28-3.24-1.34-3.24-3.19a2.07,2.07,0,0,1,2.23-2,3.92,3.92,0,0,1,1.93.5l-.35.89a2.84,2.84,0,0,0-1.62-.53c-.51,0-1.06.26-1.06.82,0,1.41,3.22,1.23,3.22,3.32a2,2,0,0,1-2.3,2,2.88,2.88,0,0,1-2-.76Z"/><path id="_Compound_Path_9" data-name="&lt;Compound Path&gt;" class="cls-1" d="M246.42,102.07l.64-.14,2.32,5.68.61,1.19h-1.27l-.72-1.75h-2.76l-.75,1.75h-1Zm-.84,4.12h2.09l-.88-2.19-.12-.38-.14.38Z"/><polygon id="_Path_13" data-name="&lt;Path&gt;" class="cls-1" points="257.54 107.99 257.61 108.8 257 108.8 252.77 104.55 252.33 103.96 252.33 107.98 252.46 108.8 251.37 108.8 251.37 103.05 251.22 102.07 251.93 102.07 256.13 106.3 256.57 106.9 256.57 103.05 256.42 102.07 257.54 102.07 257.54 107.99"/><path id="_Compound_Path_10" data-name="&lt;Compound Path&gt;" class="cls-1" d="M265.49,100.4c1.58-.05,2.71.66,2.71,2a2.88,2.88,0,0,1-.95,1.73,2.1,2.1,0,0,1,1.43,2.11c0,1.35-.81,2.58-3.12,2.58h-1.91v-7.17l-.16-1.17Zm-.7,3.42h.91a5.86,5.86,0,0,1,.93.09,2.17,2.17,0,0,0,.48-1.28c0-.89-.55-1.3-1.77-1.3l-.55,0Zm0,4.07h.92c1.36,0,1.77-.79,1.77-1.56,0-1.15-.68-1.57-2-1.57h-.72Z"/><path id="_Compound_Path_11" data-name="&lt;Compound Path&gt;" class="cls-1" d="M272.23,102.07l.64-.14,2.32,5.68.61,1.19h-1.27l-.72-1.75h-2.76l-.75,1.75h-1Zm-.84,4.12h2.09l-.89-2.19-.11-.38-.14.38Z"/><polygon id="_Path_14" data-name="&lt;Path&gt;" class="cls-1" points="281.16 108.8 278.34 105.48 278.34 107.98 278.47 108.8 277.26 108.8 277.26 103.06 277.1 102.07 278.34 102.07 278.34 105.18 280.56 102.75 280.55 102.76 280.9 102.07 282.48 102.07 279.52 105.24 282.64 108.8 281.16 108.8"/><polygon id="_Path_15" data-name="&lt;Path&gt;" class="cls-1" points="284.13 103.06 283.96 102.07 287.93 102.07 287.93 102.92 285.21 102.92 285.21 104.92 287.61 104.92 287.35 105.77 285.21 105.77 285.21 107.95 288.08 107.95 287.81 108.8 284.13 108.8 284.13 103.06"/><path id="_Compound_Path_12" data-name="&lt;Compound Path&gt;" class="cls-1" d="M294.13,108.8l-2-2.47h-.95V108l.13.82h-1.2v-5.74l-.17-1h2.15c1.27,0,2.5.65,2.5,2.05a2.26,2.26,0,0,1-1.39,1.93l2.34,2.75Zm-2.24-3.31a1.49,1.49,0,0,0,1.56-1.37c0-.79-.72-1.2-1.56-1.2h-.71v2.57Z"/><polygon id="_Path_16" data-name="&lt;Path&gt;" class="cls-1" points="298.94 107.98 299.07 108.8 297.87 108.8 297.87 105.86 296.1 102.86 296.1 102.87 295.42 102.07 296.87 102.07 298.35 104.56 298.49 104.94 298.68 104.57 300.19 102.07 301.3 102.07 298.94 105.86 298.94 107.98"/><path id="_Compound_Path_13" data-name="&lt;Compound Path&gt;" class="cls-2" d="M281.37,37.86c-2,0-3.27,1-3.27,2a1.6,1.6,0,0,0,.15.65.25.25,0,0,0,.23.15h.16a1,1,0,0,0,.95-.7,1.67,1.67,0,0,1,1.87-1.34c1.23,0,2.55.71,2.55,1.76s-1.17,1.75-2.73,1.75c-1.87,0-3.45-1.18-4.75-2.33s-3.28-2.68-5.48-2.68h-.46a6.75,6.75,0,0,0-4.73-1.9c-3.52,0-6,1.75-7.89,3.46l-.51.48-.18.18c-1.23,1.21-2.38,2.34-4.23,2.34a4.55,4.55,0,0,1-2.74-.89l.31-.1.06,0A4.72,4.72,0,0,0,253.11,39l0-.07,0-.07.09-.17v0l.06-.09a2.68,2.68,0,0,0,.09-2.46,4.12,4.12,0,0,0,.88-1l0,0,0,0,0-.07a.88.88,0,0,0,.07-.13,3.49,3.49,0,0,0,.34-.7.13.13,0,0,0,0-.06.51.51,0,0,0,0-.17s0-.07,0,0a.25.25,0,0,0,0-.14.83.83,0,0,0,0-.14.09.09,0,0,0,0,0,4.4,4.4,0,0,0,0-1.45,5.23,5.23,0,0,0-.38-1.28,6.21,6.21,0,0,0-2.17-2.46c-2.09-1.43-5.56-2.21-9.77-2.21-.88,0-1.77,0-2.66.11l-.58.06c-2.4.29-9,1.59-18.34,7.47l-.34.23a35.69,35.69,0,0,1-9.18,4.67,14.87,14.87,0,0,1-4.23.65l-.91,0c-.22,0-.61,0-.94-.09a3.52,3.52,0,0,1-.09-1.45c0-.19.07-.37.12-.59a10.29,10.29,0,0,1,1.06-2.57,15.68,15.68,0,0,1,1.74-2.31,23.81,23.81,0,0,1,1.88-1.88,3.84,3.84,0,0,0,2.07-.82l.08-.05c.06-.06.12-.11.18-.18l0,0,.06-.07.08-.09,0-.06a2.52,2.52,0,0,0,.37-.65l.22,0c2.55-.42,2.91-2,3-2.44a.28.28,0,0,0,0-.09V25.6a2.05,2.05,0,0,0-.1-.65h0c-.47-1.35-2.27-2.35-4.82-2.66a19,19,0,0,0-1.94-.13,14.6,14.6,0,0,0-5,1.24l-.38.16a.44.44,0,0,1-.12.06l-2.22,1.07-1-.57,3.54-2,1-.47,1.46-.57h.05a1.34,1.34,0,0,1,.3-.09l.44.24a7.55,7.55,0,0,0,2.57.86,4.46,4.46,0,0,0,1.06,0l.09,0a1.22,1.22,0,0,0,.83-.51.83.83,0,0,0,.06-.64l0-.07,0-.09a.15.15,0,0,1-.05-.06l-.08-.1a.4.4,0,0,0-.07-.07l0,0c-.54-.45-1.76-.57-3.4-.38-.44.05-.8.11-1,.14l-.64-.46-.39-.34-.68-.66c-.28-.32-.54-.65-.8-1l-.21-.28-.29-.4c-.28-.39-.78-1-.91-1.11a6.45,6.45,0,0,0-1.05-.88,6.26,6.26,0,0,0-1.07-.53,4.75,4.75,0,0,0-1.2-.26,4.87,4.87,0,0,0-2.36.44A5.94,5.94,0,0,0,196,16.06l-.08.09-.31.37,0,0,0,.06-.23.31a9.38,9.38,0,0,1-.61.8c-.21.27-.43.52-.66.77s-.46.49-.69.72a3.47,3.47,0,0,1-.36.31l-.26.21-.12.08a2.26,2.26,0,0,1-.26.16l-.09.06a11.7,11.7,0,0,0-2.83-.45,3,3,0,0,0-1.27.23,1.09,1.09,0,0,0-.65.94.94.94,0,0,0,.73.9,2.15,2.15,0,0,0,.44.09,1.29,1.29,0,0,0,.29,0,9,9,0,0,0,3.61-.86l.85.3,1.08.44,4.13,2.26-1.15.66a24.56,24.56,0,0,0-3-1.37l-.5-.19-1.19-.36-1.3-.29a11.72,11.72,0,0,0-3-.21,7.76,7.76,0,0,0-3.48.92,3.42,3.42,0,0,0-.95.73,2,2,0,0,0-.61,1.53c0,.07,0,1.91,3.22,2.67v0a.14.14,0,0,0,0,.07,3.26,3.26,0,0,0,2.58,2c.71.77,1.32,1.49,1.88,2.22a21.91,21.91,0,0,1,1.76,2.5,11.37,11.37,0,0,1,.7,1.32c.18.43.38.9.54,1.36a4.21,4.21,0,0,1,.24,1.32c0,.13,0,.26,0,.39-.31.05-.68.08-1,.1h-.1a11.68,11.68,0,0,1-3.88-.33l-.57-.12c-.22,0-.44-.08-.65-.14A25.36,25.36,0,0,1,183.77,37c-1.81-.93-3.47-2-5.08-3l-.07-.05c-9-5.8-16-7-18.63-7.25a30.43,30.43,0,0,0-7,.21,14.63,14.63,0,0,0-3.44.86,7.35,7.35,0,0,0-4.22,3.48,4.58,4.58,0,0,0-.4,1.28s0,.15,0,.4a5.43,5.43,0,0,0,0,.84,4.08,4.08,0,0,0,1.61,2.91l0,.09a1.11,1.11,0,0,0-.07.16,3.31,3.31,0,0,0,2,3.82,4.84,4.84,0,0,0,1.23.46,4.47,4.47,0,0,1-2.68.85c-1.85,0-3-1.13-4.23-2.33-.22-.23-.44-.45-.69-.67-1.93-1.71-4.38-3.45-7.89-3.45a6.73,6.73,0,0,0-4.73,1.89H129c-2.18,0-4.07,1.43-5.48,2.68s-2.9,2.33-4.74,2.33c-1.57,0-2.75-.75-2.75-1.75S117.33,39,118.56,39a1.68,1.68,0,0,1,1.86,1.33,1,1,0,0,0,1,.71h.18a.3.3,0,0,0,.2-.14,1.58,1.58,0,0,0,.15-.66c0-1-1.31-2-3.27-2s-3.4,1.1-3.4,2.51,1.54,2.5,3.5,2.5a8.8,8.8,0,0,0,5.52-2.19l.17-.14.58-.5c1.24-1.07,2.41-2.08,3.81-2.17a3.25,3.25,0,0,0-.54,1.84c0,2.31,2.57,3.74,5,3.74S138,42.7,138,40.64c0-1.69-1.71-2.73-3.3-2.73a3.48,3.48,0,0,0-2.08.65,6.29,6.29,0,0,0-2.06-.88,5.25,5.25,0,0,1,3.63-1.33c2.5,0,3.89,1.37,5.23,2.7l.33.31.47.45a9.58,9.58,0,0,0,6.78,3,5.47,5.47,0,0,0,3.85-1.55l.13-.1a.24.24,0,0,0,.07-.24.44.44,0,0,0-.26-.3l-.05,0a.83.83,0,0,0-.34,0h-.08a3.77,3.77,0,0,1-2.89-1.75,2.06,2.06,0,0,1-.19-1.75,5,5,0,0,0,1.24.35l.12,0h0l.1,0,0-.25.05.25h.08l.21,0A4.74,4.74,0,0,0,151,37.2a2,2,0,0,0,.36-.17l.06,0,.13-.07a3.38,3.38,0,0,0,1.72-2.68,24,24,0,0,1,2.81,0,6.37,6.37,0,0,0,1.68,3.53,12.3,12.3,0,0,0,2.86,2.49,17.6,17.6,0,0,0,3.47,1.84,14.2,14.2,0,0,0,4.3,1,3.94,3.94,0,0,0,3.26-1,.24.24,0,0,0,.09-.11.61.61,0,0,0,.1-.14,1.81,1.81,0,0,0,.29-1,3.61,3.61,0,0,0-.91-2.12,10.05,10.05,0,0,0-1.39-1.37,15.2,15.2,0,0,0-3.54-1.9,29,29,0,0,0-4.13-1.38c-.77-.19-1.57-.35-2.37-.47s-1.74-.25-2.66-.32a2.56,2.56,0,0,1,1.58-1.44,4.42,4.42,0,0,1,1.65-.27A9.15,9.15,0,0,1,163,32a27.27,27.27,0,0,1,2.7,1,38.9,38.9,0,0,1,4,2l.86.5c1.52.85,3,1.65,4.47,2.44l.47.26.27.15h0a38.39,38.39,0,0,0,9.65,3.84h0c.55.11,1.09.19,1.63.26a18.66,18.66,0,0,0,2,.12c4,0,5.46-1.72,6-2.82l.1,0a12,12,0,0,0,4.61-2.35,12.42,12.42,0,0,0,4.89,2.43l.26.26a3.7,3.7,0,0,0,.28.28l.06.06.18.15.09.07.06,0A8.9,8.9,0,0,0,211,42.5a13.57,13.57,0,0,0,2.8-.28,33.2,33.2,0,0,0,4.7-1.4,40.71,40.71,0,0,0,4.22-1.89c1.26-.63,2.61-1.33,3.94-2.11.53-.32,1.07-.62,1.61-.92.73-.41,1.49-.84,2.23-1.29l.45-.27h0l0,0c.43-.24.9-.49,1.46-.76l1-.45a16.69,16.69,0,0,1,6.19-1.69,5.94,5.94,0,0,1,.87.06l.19,0A2.58,2.58,0,0,1,242.51,33c-.87.09-1.76.2-2.67.35a26.29,26.29,0,0,0-6.2,1.77A16.92,16.92,0,0,0,230.16,37a8.53,8.53,0,0,0-1.39,1.31,4.26,4.26,0,0,0-1.06,1.77,2,2,0,0,0,.31,1.67,3,3,0,0,0,2.18,1.11,9.87,9.87,0,0,0,3.74-.44,16.84,16.84,0,0,0,4.7-2.05c4.32-2.64,5.09-5.09,5.11-6.45a23.31,23.31,0,0,1,2.91,0,3.47,3.47,0,0,0,.16.71,3.34,3.34,0,0,0,2.58,2.25h0l.06,0h0s.07,0,.05,0l.4.09,0-.25,0,.26.21,0h.19a4.31,4.31,0,0,0,2.24-.47l0,0a1.7,1.7,0,0,1,.11.88,3.46,3.46,0,0,1-2.62,2.56l-.34,0a2,2,0,0,0-.53.09l-.06,0a1,1,0,0,0-.23.14.25.25,0,0,0-.09.2.23.23,0,0,0,.1.19.62.62,0,0,0,.17.1,5.45,5.45,0,0,0,3.84,1.55,9.6,9.6,0,0,0,6.79-3c.27-.25.52-.5.78-.76C262,37.35,263.38,36,265.86,36a5.25,5.25,0,0,1,3.63,1.33,6.11,6.11,0,0,0-2.06.88,3.54,3.54,0,0,0-2.08-.65c-1.59,0-3.3,1-3.3,2.72,0,2.07,2.43,3.18,4.73,3.18s5-1.42,5-3.73a3.3,3.3,0,0,0-.54-1.85C272.56,38,273.72,39,275,40l.05,0,.75.63a8.74,8.74,0,0,0,5.53,2.19c2,0,3.49-1.1,3.49-2.5s-1.49-2.51-3.4-2.51m-16,.43a2.87,2.87,0,0,1,1.51.38,1.89,1.89,0,0,0-.63,1.32,1.26,1.26,0,0,0,1.14,1.35A1.28,1.28,0,0,0,268.54,40,1.93,1.93,0,0,0,268,38.7a5.92,5.92,0,0,1,2-.73,3,3,0,0,1,.52,1.74c0,1.94-1.95,3-3.79,3s-3.56-.75-3.56-2.43a2,2,0,0,1,2.13-2m2,2.3c-.22,0-.39-.26-.39-.6a1.25,1.25,0,0,1,.46-.86,1.28,1.28,0,0,1,.35.86c0,.32-.19.6-.42.6M197.9,37.86l-.16.1-.11.06-.21.12-.11.06-.08,0a10,10,0,0,1-1.86.72,1.93,1.93,0,0,0,0-.25,5.16,5.16,0,0,0-.49-2.62,25,25,0,0,0-4.08-5.7,9,9,0,0,0,1.46-.06c2.94-.37,7.07-2.78,7.89-3.27l0,0a19.57,19.57,0,0,0,5.31,2.63l1.45.42.85.15h.09l.68.09a16.27,16.27,0,0,0-3.89,5.24.37.37,0,0,0-.05.11l0,.09a.34.34,0,0,0,0,.12,3.11,3.11,0,0,0-.16.49,5.21,5.21,0,0,0-.06,2.46c-.32-.09-.67-.2-.91-.29h0l-.05,0a8.2,8.2,0,0,1-2.92-1.7l-.13-.12c-.19-.18-.32-.29-.47-.3a.25.25,0,0,0-.22.1,8.57,8.57,0,0,1-1.74,1.29M186.59,26.54a3,3,0,0,0-.09.46.15.15,0,0,0,0,.07c-1-.31-1.53-.85-1.62-1.51a2.07,2.07,0,0,1,1.22-1.94l.32-.16.15-.07.48-.16.81-.17.19,0c.31,0,.64,0,1,0a18.11,18.11,0,0,1,7.65,2,17.13,17.13,0,0,1-6.45,2.29,11.1,11.1,0,0,1-2.78,0,1.52,1.52,0,0,1,.32-1.16,2.28,2.28,0,0,1,1.53-.6,6.41,6.41,0,0,1,1.21.19,2.23,2.23,0,0,1,.45.18l.15.08a1.06,1.06,0,0,0,.36.07.47.47,0,0,0,.47-.29.42.42,0,0,0,0-.33.83.83,0,0,0-.45-.37,6.18,6.18,0,0,0-1.65-.31h-.21a3.57,3.57,0,0,0-2.06.44,2.28,2.28,0,0,0-.95,1.37M194,20.05a12.91,12.91,0,0,0,1.58-1.49c.25-.26.48-.53.71-.81l.23-.3s0-.05,0-.05l0,0c.1-.12.2-.23.31-.34a5.42,5.42,0,0,1,1.5-1,3.79,3.79,0,0,1,1.7-.33,3.74,3.74,0,0,1,1.66.54,5.35,5.35,0,0,1,.88.64l.39.42.54.59a.17.17,0,0,0,.06.06l.16.19.17.19.11.12,0,0a17.85,17.85,0,0,0,2.11,2l-1.06.32-1.58.57-2,1-2,1.12-2.8-1.63-1.17-.59-1.15-.5-.86-.28.46-.33m21.2,5.75c-.08.88-.9,1.35-1.6,1.6l-.06,0-.08,0-.16,0a2.85,2.85,0,0,0-.34-1.3A2.67,2.67,0,0,0,211.7,25a4.5,4.5,0,0,0-2-.41,6.51,6.51,0,0,0-.92.07,2.31,2.31,0,0,0-1.15.36l-.1.06a.27.27,0,0,0-.07.08l-.06.08a.5.5,0,0,0,0,.46c.12.2.36.25.67.12l.07,0,.17-.08.07,0a4.43,4.43,0,0,1,1.39-.21h.33a2.52,2.52,0,0,1,1.78.82,1.81,1.81,0,0,1,.27,1.42h-.21a18.32,18.32,0,0,1-5.58-1l-1.13-.4-1.74-.75-.1.23,0-.27-.28-.14,2.14-1.09.51-.22,1.54-.55,1-.25.54-.08.52-.06h.47a10.29,10.29,0,0,1,3.2.51c.23.09,2.27.91,2.16,2.17m-3.72,2.74h.19a3.51,3.51,0,0,1-2.66,1,7.21,7.21,0,0,1-1-.08,17.15,17.15,0,0,1-4.66-1.58L201,26.57l1.26-.71a29,29,0,0,0,5.92,2.31,18.18,18.18,0,0,0,3.1.36Zm-11.87-2.75-.61-.35-.26-.14,1.13-.67,1,.52Zm-11.1,2.5A16.38,16.38,0,0,0,198,25.76l.8.48L195.41,28l-1.88.83h0a7.21,7.21,0,0,1-3.91.45,3.16,3.16,0,0,1-1.8-1l.73.07m-.86,13.44h-.09A19.46,19.46,0,0,1,179.93,39c-1.51-.81-3.3-1.78-5-2.8l-.18-.1c-.52-.31-1-.6-1.5-.84l-1.6-.83a49.69,49.69,0,0,0-5.49-2.57,17.3,17.3,0,0,0-5.47-1.08,5.27,5.27,0,0,0-3.32.91,3.47,3.47,0,0,0-1.1,1.56,21,21,0,0,0-3.11.08,2.71,2.71,0,0,0-2.08-1.71l-.17,0a3.31,3.31,0,0,0-.77,0h-.05a.63.63,0,0,0-.16,0h0a2,2,0,0,0-1.75,1.8.25.25,0,0,0,.48.1,2,2,0,0,1,.44-.64l0,0a1.84,1.84,0,0,1,1.06-.5h.2a2.06,2.06,0,0,1,.56,0H151l.09,0s0,0,.07,0h0l.09,0a1.86,1.86,0,0,1,.83,1l-.33.06a10,10,0,0,0-2.94.91A6.56,6.56,0,0,0,147,35.82c-2-1.49-1.09-4.05-1-4.15a4,4,0,0,1,.6-1,7.62,7.62,0,0,1,2.88-2l0,0,.22-.08.1,0a18.56,18.56,0,0,1,7.64-1l.34,0h.15A43.32,43.32,0,0,1,172.31,32l1.56.81.67.35c.73.39,1.45.81,2.15,1.22l1,.6,0,0,.05,0,.4.24c1.2.66,2.44,1.35,3.74,2a24.1,24.1,0,0,0,8.75,2.83,19.27,19.27,0,0,0,3.13,0c-.55.63-2,1.75-5.07,1.75l-1,0h0m-26.29-2.35a16.53,16.53,0,0,1-2.86-2.08,4.46,4.46,0,0,1-1.59-3c1.22.12,2.26.28,2.92.4a31.42,31.42,0,0,1,5.2,1.38c.58.22,1.1.43,1.59.66l.09,0h0l.08,0h0c1,.5,4.79,2.52,4.17,4.48-.18.53-.74.81-1.68.81a17.83,17.83,0,0,1-6.41-1.91c-.52-.26-1-.53-1.47-.81Zm-12.54-4a7.87,7.87,0,0,1,1.19-.51l.15,0,.43-.13c.28-.07.57-.14.88-.19l.8-.12a2.08,2.08,0,0,1-.24,1,2.19,2.19,0,0,1-.53.62,3.13,3.13,0,0,1-2,.68,4.37,4.37,0,0,1-1.61-.33l-.2-.08a4.36,4.36,0,0,1,1.11-.91m103.33.53a3.48,3.48,0,0,1-2.64.28,2.51,2.51,0,0,1-1.9-2.11c2.15.28,3.71.91,4.54,1.83m-4.09-3.4a2,2,0,0,1,.65-.39,2.47,2.47,0,0,1,.68-.11,2,2,0,0,1,1.66,1l.08.14.09.16a.26.26,0,0,0,.48-.12.2.2,0,0,0,0-.11,2.24,2.24,0,0,0-2.51-1.83A2.65,2.65,0,0,0,246.77,33a24.9,24.9,0,0,0-3.16,0,1.3,1.3,0,0,0-.06-.2v0c-.58-1.51-2-2.28-4.25-2.28a16.72,16.72,0,0,0-5,.93c-.26.09-.5.18-.72.28-1.15.45-2.22,1-3.25,1.45l-.7.34-.81.43c-1.86,1-3.79,2-5.57,3.11a69.57,69.57,0,0,1-8.46,4.15,11,11,0,0,1-4.59.52,8,8,0,0,1-4.08-1.53L206,40c.41,0,.84,0,1.27,0a19.67,19.67,0,0,0,6-1,24.36,24.36,0,0,0,3-1.24c2.22-1.1,7.82-4.26,7.88-4.3a58.42,58.42,0,0,1,8.15-4.07,33.2,33.2,0,0,1,9.56-2.33,21.28,21.28,0,0,1,3.91,0,15.64,15.64,0,0,1,5,1.24c1.45.66,3.23,1.9,3.45,4.05a3.28,3.28,0,0,1-1.27,3c-.44-.54-1.81-1.82-5.26-2.29a1.61,1.61,0,0,1,.35-.6M228.2,40.69l.26-.08c.19-2.15,4.87-4.17,6.87-4.93.49-.19,1-.37,1.54-.53,1.35-.38,2.85-.72,4.31-1q.72-.11,1.53-.18v.12a4.64,4.64,0,0,1-1.84,3.22l0,0h0l-.06,0-.1.08c-.27.23-.56.46-.89.69l-.06,0-.08.05-.22.15-.08.06-.19.13-.08,0c-2.79,1.8-6.6,3.16-8.86,3.16a2.15,2.15,0,0,1-1.56-.45,1.13,1.13,0,0,1-.21-.68ZM209.74,20.75h.08a4.12,4.12,0,0,1,.52.06,2.24,2.24,0,0,1,.76.21l-.08,0h0a1.89,1.89,0,0,1-.46.05,5.71,5.71,0,0,1-1.88-.37c.33,0,.72,0,1.09,0m-21.2-.07.07,0a4,4,0,0,1,1.35-.22,6.51,6.51,0,0,1,1.18.12,5.16,5.16,0,0,1-2.5.16l-.1,0m-55.3,22.39c-1.84,0-3.79-1-3.79-3a3,3,0,0,1,.51-1.74,5.85,5.85,0,0,1,2,.73,1.93,1.93,0,0,0-.53,1.29,1.17,1.17,0,1,0,2.31,0,1.87,1.87,0,0,0-.62-1.31,2.75,2.75,0,0,1,1.5-.39,2,2,0,0,1,2.14,2c0,1.68-1.79,2.43-3.56,2.43m-.6-2.11c-.23,0-.43-.28-.43-.6a1.25,1.25,0,0,1,.36-.86,1.27,1.27,0,0,1,.46.86c0,.34-.16.6-.39.6"/><path id="_Compound_Path_14" data-name="&lt;Compound Path&gt;" class="cls-2" d="M281.27,78.85A8.83,8.83,0,0,0,275.75,81l-.76.66c-1.24,1.07-2.41,2.08-3.8,2.17a3.3,3.3,0,0,0,.54-1.85c0-2.31-2.57-3.73-5-3.73s-4.73,1.11-4.73,3.17c0,1.68,1.71,2.72,3.3,2.72a3.52,3.52,0,0,0,2.08-.64,6,6,0,0,0,2.06.87,5.21,5.21,0,0,1-3.63,1.34c-2.5,0-3.89-1.37-5.24-2.69-.26-.26-.51-.52-.79-.76a9.56,9.56,0,0,0-6.78-3,5.43,5.43,0,0,0-3.84,1.55.56.56,0,0,0-.17.09.22.22,0,0,0-.1.18.22.22,0,0,0,.08.2.7.7,0,0,0,.2.15l.1,0a1.71,1.71,0,0,0,.54.1,1.88,1.88,0,0,1,.33.05,3.47,3.47,0,0,1,2.62,2.56,1.75,1.75,0,0,1-.12.89s0,0,0,0l0,0a5.93,5.93,0,0,0-1.47-.51,4.77,4.77,0,0,0-.92,0l-.25,0h-.09a4.43,4.43,0,0,0-1.36.43l-.08,0a4.1,4.1,0,0,0-1,.78l-.06.07-.12.13a.41.41,0,0,0,0,.09l0,0c-.08.11-.17.24-.24.36a3.17,3.17,0,0,0-.35,1.26,21.3,21.3,0,0,1-2.65,0h-.24c.11-3-4.17-5.92-4.34-6l-.16-.12-.39-.26a.17.17,0,0,0-.1-.06,17.3,17.3,0,0,0-4.81-2.11,9.77,9.77,0,0,0-3.74-.43,3,3,0,0,0-2.25,1.2,1.32,1.32,0,0,0-.09.17,1.82,1.82,0,0,0-.2.75c-.1,1.09.51,2.8,4,4.67.69.37,1.4.68,2,.94a26.78,26.78,0,0,0,6.21,1.77c1,.16,1.89.28,2.79.36a3.29,3.29,0,0,1-2,1.59h0a8.13,8.13,0,0,1-3.27-.17l-.18,0-.11,0h0l-.12,0a43.81,43.81,0,0,1-7.31-3.47l-.8-.45h0l-.8-.46c-.45-.24-.88-.49-1.32-.75-1.29-.76-2.6-1.43-3.94-2.12l-1.09-.53-.07,0c-.72-.36-1.44-.7-2.21-1a21,21,0,0,0-6.73-1.89,13.88,13.88,0,0,0-1.62-.09h-.11a6.66,6.66,0,0,0-1.15.09,1.28,1.28,0,0,0-.27,0h-.07l-.32.06-.23,0-.2.06-.12,0-.37.11-.14,0-.06,0a9.15,9.15,0,0,0-3.55,2.16l-.45.13-.14,0c-.17,0-.33.11-.48.17a10.91,10.91,0,0,0-3.5,1.95A10.59,10.59,0,0,0,195.64,82a7.79,7.79,0,0,0-2.2-1.83,7.49,7.49,0,0,0-2.1-.83,12.39,12.39,0,0,0-4-.17,15.37,15.37,0,0,0-2.3.39s-1.06.26-1.41.4h0a40.34,40.34,0,0,0-4.2,1.57c-.8.32-1.65.71-2.6,1.2l-.06,0-.9.48-1.47.79c-1.26.68-2.53,1.37-3.82,2.09l-.9.51a36.29,36.29,0,0,1-3.93,2c-.88.37-1.76.69-2.7,1a9.27,9.27,0,0,1-2.69.43,4.36,4.36,0,0,1-1.64-.27,2.56,2.56,0,0,1-1.58-1.44c.88-.07,1.78-.17,2.65-.32a23.87,23.87,0,0,0,2.38-.48,27.76,27.76,0,0,0,4.13-1.37,15.63,15.63,0,0,0,3.55-1.91A9.42,9.42,0,0,0,171.19,83a3.59,3.59,0,0,0,.91-2.11,1.8,1.8,0,0,0-.28-1,1.4,1.4,0,0,0-.12-.18s0,0,0,0a3.92,3.92,0,0,0-3.29-1,14.08,14.08,0,0,0-4.3,1,18.37,18.37,0,0,0-3.47,1.83,12.15,12.15,0,0,0-2.86,2.51,6.31,6.31,0,0,0-1.68,3.51,21.79,21.79,0,0,1-2.91,0,3.29,3.29,0,0,0-.4-1.39A3.74,3.74,0,0,0,149,84.25h-.18l-.13,0h-.19l-.09,0a5.47,5.47,0,0,0-1.24.34,2,2,0,0,1,.19-1.74,3.77,3.77,0,0,1,2.89-1.75h.07a1.2,1.2,0,0,0,.35,0,.09.09,0,0,0,.06,0,.43.43,0,0,0,.25-.32.27.27,0,0,0-.06-.21.44.44,0,0,0-.15-.1A5.43,5.43,0,0,0,147,78.91a9.57,9.57,0,0,0-6.78,3c-.27.24-.53.49-.8.76-1.35,1.32-2.74,2.69-5.23,2.69A5.25,5.25,0,0,1,130.52,84a6.64,6.64,0,0,0,2.06-.88,3.5,3.5,0,0,0,2.08.65c1.59,0,3.31-1,3.31-2.73,0-2.06-2.44-3.18-4.73-3.18s-5,1.43-5,3.73a3.26,3.26,0,0,0,.54,1.85c-1.39-.08-2.56-1.1-3.8-2.17l-.76-.65a8.82,8.82,0,0,0-5.52-2.18c-2,0-3.5,1.1-3.5,2.5s1.5,2.51,3.4,2.51,3.27-1,3.27-2a1.82,1.82,0,0,0-.13-.64.27.27,0,0,0-.22-.16h-.18a1,1,0,0,0-1,.71,1.69,1.69,0,0,1-1.86,1.33c-1.23,0-2.57-.67-2.57-1.76s1.18-1.75,2.75-1.75c1.85,0,3.43,1.18,4.74,2.33s3.3,2.68,5.48,2.68a3.31,3.31,0,0,0,.45,0,6.75,6.75,0,0,0,4.74,1.9A11.56,11.56,0,0,0,142,82.67c.24-.22.47-.45.7-.68,1.22-1.19,2.38-2.32,4.22-2.32a4.47,4.47,0,0,1,2.68.85,4.7,4.7,0,0,0-1.22.45,3.32,3.32,0,0,0-2,3.83l.08.2s0,0,0,0a4,4,0,0,0-1.62,4.07s0,.07,0,.08a4.37,4.37,0,0,0,.41,1.28A7.34,7.34,0,0,0,149.52,94a15.58,15.58,0,0,0,3.44.85,27.72,27.72,0,0,0,4.32.32,34.91,34.91,0,0,0,8.41-1,35.59,35.59,0,0,0,8.58-3.68c1.44-.81,2.78-1.67,4.09-2.49,1.78-1.14,3.47-2.21,5.41-3.21a24.12,24.12,0,0,1,3.72-1.59l.39-.13.2,0,.08,0a15.15,15.15,0,0,1,3.4-.58,14.15,14.15,0,0,1,1.59,0h.15c.29,0,.62,0,.91.09h.12A15.05,15.05,0,0,1,195.9,85a10.82,10.82,0,0,1,.67,1.82,13.09,13.09,0,0,0-2.39.74l-.09,0-.15.06-.16.07-.08,0c-.34.17-.52.28-.52.28l0,0a7.28,7.28,0,0,0-.87.63,5.25,5.25,0,0,0-1.89,2.8,4.55,4.55,0,0,0-.09,1,2.59,2.59,0,0,0,.93,2,3,3,0,0,0,2.32.63.5.5,0,0,0,.13,0,.62.62,0,0,0,.2,0H194a3.83,3.83,0,0,0,.65-.24c2.24-1,3.44-3.8,3.14-7.22a13.57,13.57,0,0,1,4,0s0,.08,0,.12v.14a9.17,9.17,0,0,0,.18,2.6c.45,2.27,1.64,3.92,3.28,4.53a3,3,0,0,0,3.35-.61,2.84,2.84,0,0,0,.67-2.24c-.42-3.19-4-4.56-5.52-5-.22-.07-.45-.12-.68-.18a12.38,12.38,0,0,1,.63-1.86,12.22,12.22,0,0,1,1.47-2.34.39.39,0,0,0,.08-.1h0l.23,0h0l.35-.05H206l.29,0,.2,0a13.76,13.76,0,0,1,5.13.63,35,35,0,0,1,9.11,4.62,96.32,96.32,0,0,0,9.51,5.38,30.85,30.85,0,0,0,9.82,2.42c.89.07,1.78.1,2.66.1,4.21,0,7.69-.78,9.77-2.2a6.21,6.21,0,0,0,2.17-2.46,5.26,5.26,0,0,0,.38-1.28,4.21,4.21,0,0,0-1.61-4,2.58,2.58,0,0,0-.06-2.47.23.23,0,0,0-.06-.12h0l-.13-.23,0-.06A4.77,4.77,0,0,0,250.65,81l-.34-.11a4.52,4.52,0,0,1,2.74-.9c1.85,0,3,1.14,4.23,2.35L258,83c1.93,1.71,4.37,3.45,7.89,3.45a6.75,6.75,0,0,0,4.73-1.89h.46c2.19,0,4.08-1.43,5.48-2.68s2.89-2.33,4.74-2.33c1.56,0,2.74.75,2.74,1.75s-1.34,1.75-2.57,1.75a1.67,1.67,0,0,1-1.85-1.32,1,1,0,0,0-.95-.71h-.19a.23.23,0,0,0-.2.14,1.68,1.68,0,0,0-.15.65c0,1,1.31,2,3.27,2s3.4-1.1,3.4-2.51-1.54-2.5-3.5-2.5M266.78,79c1.84,0,3.79,1,3.79,3a3,3,0,0,1-.52,1.74,5.91,5.91,0,0,1-2-.73,1.93,1.93,0,0,0,.53-1.29,1.3,1.3,0,0,0-1.18-1.36,1.26,1.26,0,0,0-1.13,1.36,1.88,1.88,0,0,0,.63,1.32,2.87,2.87,0,0,1-1.51.37,2,2,0,0,1-2.13-2c0-1.67,1.79-2.42,3.56-2.42m.58,2.09c.23,0,.43.28.43.61a.53.53,0,1,1-.81,0c0-.34.17-.61.38-.61M245.82,94.63a23.2,23.2,0,0,1-3.91,0,33.79,33.79,0,0,1-9.57-2.34,55.09,55.09,0,0,1-7.09-3.48l0,0-.92-.52-.87-.5c-3.24-1.82-7.08-3.84-7.17-3.88a25.21,25.21,0,0,0-2.93-1.21,19.67,19.67,0,0,0-6-1c-.42,0-.83,0-1.23,0l.15-.13,0,0,.05,0,0,0,.07,0h0a8.07,8.07,0,0,1,3.79-1.34,11.31,11.31,0,0,1,4.58.52A44.07,44.07,0,0,1,219.93,83C220,83,226,86.4,228,87.44l.53.28,1.12.59.69.33c.9.42,1.83.86,2.8,1.27a17.17,17.17,0,0,0,6.06,1.43c2.27,0,3.75-.86,4.41-2.55.91,0,1.91,0,3.14-.06a2.52,2.52,0,0,0,1.76,1.7,2.85,2.85,0,0,0,2-.19,2.42,2.42,0,0,0,1.18-1.57.25.25,0,0,0-.17-.28.24.24,0,0,0-.3.12l0,.07-.11.21a2,2,0,0,1-1.66.95,2.33,2.33,0,0,1-.68-.1,2.14,2.14,0,0,1-.64-.37,1.83,1.83,0,0,1-.38-.63,12.94,12.94,0,0,0,3.68-1.14h0A4.91,4.91,0,0,0,253,86.34a3.26,3.26,0,0,1,1.29,3c-.22,2.15-2,3.4-3.45,4.06a16,16,0,0,1-5,1.25m-15.6-14.72c2.11,0,5.64,1.2,8.39,2.85l.12.08.34.22.08,0,.32.21.16.11c1.19.86,3.12,2.52,3.16,4.35l-.86-.1a46.13,46.13,0,0,1-5.44-1.21c-.79-.27-7.79-2.7-8-5.37V81a1.15,1.15,0,0,1,.19-.65,2.13,2.13,0,0,1,1.58-.46m18.58,7.67a10,10,0,0,1-1.18.21,2.5,2.5,0,0,1,1.9-2.22,4.37,4.37,0,0,1,1.07-.14,2.84,2.84,0,0,1,1.6.43,5.67,5.67,0,0,1-3.39,1.72m-43,1.3.08,0a7,7,0,0,1,1.05.88l0,0a6.11,6.11,0,0,1,.45.51,1.13,1.13,0,0,0,.12.17l.13.2a3.23,3.23,0,0,1,.58,2.6,1.58,1.58,0,0,1-1.41,1,1.62,1.62,0,0,1-.44,0c-1.47-.17-2.63-2-2.64-2a7.16,7.16,0,0,1-.95-4.27,1.8,1.8,0,0,0,0-.22s0-.13,0-.21a8.16,8.16,0,0,1,2.74,1.08.57.57,0,0,1,.13.08Zm-10.45,4,0,.08A3.16,3.16,0,0,1,193,94.27a2.15,2.15,0,0,1-.89-.19L192,94h0a1.49,1.49,0,0,1-.76-1,3.72,3.72,0,0,1,.6-2.39,1.88,1.88,0,0,1,.18-.24,7.52,7.52,0,0,1,4.74-2.75,6.65,6.65,0,0,1-.32,3.42,11.83,11.83,0,0,1-.62,1.23l-.13.2a2.48,2.48,0,0,1-.18.25,1,1,0,0,1-.12.16m2.9-8.72.7.57.05,0,.2.17c.17.14.36.3.41.33a.24.24,0,0,0,.12,0c.14,0,.26-.09.68-.49l.13-.12.13-.1a12.61,12.61,0,0,1,2.54-1.45l.11,0,0,0a9.23,9.23,0,0,0-1.43,3.48,16.66,16.66,0,0,0-2.42-.19,13.72,13.72,0,0,0-1.83.12,10.45,10.45,0,0,0-1.18-3.39,7.64,7.64,0,0,1,1.82,1m-20.1,2.3c-.49.28-1,.56-1.46.85-.71.42-1.44.85-2.18,1.24l-.41.21a59.32,59.32,0,0,1-7.35,3.45c-.48.18-1,.32-1.51.47l-.68.19a30.82,30.82,0,0,1-7.19,1.35,18.78,18.78,0,0,1-7.63-1l-.35-.15-.07,0a7.64,7.64,0,0,1-2.81-2,3.89,3.89,0,0,1-.61-1c0-.11-.94-2.64,1.06-4.15a6.69,6.69,0,0,0,1.83,1.34,10.41,10.41,0,0,0,3.29,1,.7.7,0,0,1-.06.17,1.63,1.63,0,0,1-1,.86l-.09,0a2.33,2.33,0,0,1-.83,0h-.05l-.08,0H150a1.86,1.86,0,0,1-.54-.22l-.05,0h0a2.25,2.25,0,0,1-.41-.34,2.18,2.18,0,0,1-.34-.55.25.25,0,0,0-.28-.16.23.23,0,0,0-.2.26,2.08,2.08,0,0,0,2,1.85,2.6,2.6,0,0,0,1.1-.09l.1,0h0a.32.32,0,0,0,.09,0,2.77,2.77,0,0,0,.56-.3,2.8,2.8,0,0,0,1-1.29,20.83,20.83,0,0,0,3.21.09A3.53,3.53,0,0,0,157.34,90a5.38,5.38,0,0,0,3.33.91,17.3,17.3,0,0,0,5.47-1.08,49.15,49.15,0,0,0,5.46-2.56l1.63-.84c.43-.22.86-.47,1.31-.72l.37-.22c1.65-1,3.39-1.93,5-2.81A19.88,19.88,0,0,1,187.59,80h.1a11.93,11.93,0,0,1,2.87.11h.08l.15,0,.44.1a5.68,5.68,0,0,1,2.36,1.45,18.6,18.6,0,0,0-2.89,0A24.1,24.1,0,0,0,182,84.5c-1.28.62-2.46,1.27-3.77,2m-26,.59v.12c0,.05,0,.1,0,.16a11.26,11.26,0,0,1-1.62-.3l-.45-.14-.2-.06a7,7,0,0,1-1.12-.49,4.14,4.14,0,0,1-1.13-.91l.2-.08a4.26,4.26,0,0,1,1.61-.33,3,3,0,0,1,.91.13,2.58,2.58,0,0,1,.64.26,2.32,2.32,0,0,1,1.14,1.64m14.65-2.24h0l-.12.06-.05,0h0c-.51.24-1,.45-1.59.66a31,31,0,0,1-5.2,1.37c-.67.13-1.71.3-2.92.41a4.46,4.46,0,0,1,1.59-3,15.86,15.86,0,0,1,2.8-2l.14-.09c.46-.29.94-.55,1.48-.82a17.78,17.78,0,0,1,6.4-1.91c.95,0,1.51.28,1.69.82.62,2-3.14,4-4.16,4.47m-32.21-1.8a2.87,2.87,0,0,1-1.51-.38,1.83,1.83,0,0,0,.63-1.31,1.17,1.17,0,1,0-2.31,0,1.87,1.87,0,0,0,.53,1.28,6,6,0,0,1-2,.74,3,3,0,0,1-.51-1.75c0-1.93,2-3,3.79-3s3.56.75,3.56,2.42a2,2,0,0,1-2.14,2m-2-2.3c.22,0,.39.27.39.61a1.25,1.25,0,0,1-.46.86,1.28,1.28,0,0,1-.36-.86c0-.33.2-.61.43-.61"/><path id="_Path_17" data-name="&lt;Path&gt;" class="cls-3" d="M288.72,56.66a3.76,3.76,0,0,0,1.48-2.46c0-.83-.31-1-.64-1a1.19,1.19,0,0,1,1.13-1.34c.86,0,1.28.54,1.28,1.43,0,1.1-1,2.69-2.84,3.89Z"/><path id="_Compound_Path_15" data-name="&lt;Compound Path&gt;" class="cls-3" d="M96.17,67.2V56.87c0-1.78-.34-2.12-.58-2.49l.16-.39,4-.1c3-.1,4.32,1.61,4.32,3.19a3.83,3.83,0,0,1-2.17,3.23A3.89,3.89,0,0,1,105,64.2c0,2.75-2.09,4.52-5.33,4.52H96.15c0-.74,0-1.52,0-1.52M98.41,61c0,2.42,0,4.85,0,6.6h1.43c2.24,0,3.13-1.36,3.13-2.71a3.55,3.55,0,0,0-3.66-3.84Zm2.71-.89a3.32,3.32,0,0,0,1-2.44,2.4,2.4,0,0,0-2.5-2.59l-1.09,0c0,.6,0,1.43,0,2.39,0,.8-.07,1.64-.07,2.48h1.19a8.91,8.91,0,0,1,1.5.14"/><path id="_Path_18" data-name="&lt;Path&gt;" class="cls-3" d="M113.92,68.72c0-.74,0-1.52,0-11.9,0-1.77-.34-2.08-.58-2.46l.15-.39a4.43,4.43,0,0,1,1.55-.29,3,3,0,0,1,1.27.27c-.11,2.51-.23,5.79-.23,8.86,0,1.57,0,3.44.07,4.67h2.57c1.32,0,2.22-.51,2.36-1.18h.42a2.79,2.79,0,0,1-.27,2.42Z"/><path id="_Compound_Path_16" data-name="&lt;Compound Path&gt;" class="cls-3" d="M156.94,53.73c3.24,0,5.95,2.53,5.95,7.36-.09,4.45-2.84,7.91-7.27,7.91-2.8,0-5.68-2.55-5.68-7.4,0-4.63,3-7.87,7-7.87m-.25,13.94c2.16,0,3.76-2.62,3.76-5.82,0-3.69-2-6.74-4.29-6.74s-3.8,2.6-3.8,5.78c0,3.47,1.9,6.78,4.33,6.78"/><path id="_Path_19" data-name="&lt;Path&gt;" class="cls-3" d="M197,66.74a1.34,1.34,0,0,1,.25-.73c.18.64,1.93,1.43,3.33,1.43s2.79-.45,2.79-2.06c0-3-6.3-3.62-6.3-7.72a4,4,0,0,1,4.14-4,6.3,6.3,0,0,1,3.51,1,3,3,0,0,1-.38,2.44L204,57a3.22,3.22,0,0,0-3-2.14,2,2,0,0,0-2.17,1.9c0,2.93,6.71,3.47,6.71,8,0,2.33-1.94,4.27-4.84,4.27-1.93,0-3.66-1.09-3.66-2.26"/><path id="_Path_20" data-name="&lt;Path&gt;" class="cls-3" d="M239.42,69c-3.07,0-5.29-1-5.4-5,0-1.7-.11-3.6-.11-7.22,0-1.77-.34-2.08-.58-2.46l.15-.39a4.48,4.48,0,0,1,1.54-.29,3,3,0,0,1,1.29.27c-.11,2.77-.11,6.46-.11,9.8s2.1,3.78,3.41,3.78c2.22,0,3.83-1.37,3.94-3,0,0,.09-.72.09-7.76a3.49,3.49,0,0,0-.58-2.41l.16-.39a2.21,2.21,0,0,1,1.11-.26,1.77,1.77,0,0,1,1,.24c-.14,3-.21,6.4-.21,9.91,0,2.88-2.07,5.16-5.71,5.16"/><path id="_Compound_Path_17" data-name="&lt;Compound Path&gt;" class="cls-3" d="M135.47,53.73c3.24,0,5.95,2.53,5.95,7.36-.09,4.45-2.84,7.91-7.27,7.91-2.79,0-5.68-2.55-5.68-7.4,0-4.63,3-7.87,7-7.87m-.25,13.94c2.16,0,3.76-2.62,3.76-5.82,0-3.69-2-6.74-4.29-6.74s-3.8,2.6-3.8,5.78c0,3.47,1.9,6.78,4.33,6.78"/><path id="_Path_21" data-name="&lt;Path&gt;" class="cls-3" d="M179,69a2.17,2.17,0,0,1-1.63-1.7l-3.7-9.05a10.38,10.38,0,0,1-.37-1.31c0,.32,0,1.1,0,1.48,0,2.69-.09,7-.16,9.15a5.73,5.73,0,0,0,.09,1.17h-1.63l0-.36c.27-5,.47-11.3.49-13.15a2.48,2.48,0,0,0-.6-.85l.16-.39a4.68,4.68,0,0,1,1.54-.29,2.67,2.67,0,0,1,1.41.34,131.78,131.78,0,0,0,4.92,12.5c4.17-10.65,4.46-11.38,4.59-11.74.33-.85,1.57-.87,3-1-.08,1.18,0,1.38-.08,3.66-.06,3.4,0,7.34.14,10a9.34,9.34,0,0,0,.16,1.32H185V67.37c.08-4,0-7-.07-9.1,0-.38-.06-1.09-.06-1.35l-.47,1.46-3.82,8.9-.6,1.9Z"/><path id="_Compound_Path_18" data-name="&lt;Compound Path&gt;" class="cls-3" d="M215.28,67.2V56.87c0-1.78-.33-2.12-.58-2.49l.16-.39,4-.1c3-.1,4.31,1.61,4.31,3.19A3.81,3.81,0,0,1,221,60.31a3.88,3.88,0,0,1,3.15,3.89c0,2.75-2.07,4.52-5.32,4.52h-3.53c0-.74,0-1.52,0-1.52M217.52,61c0,2.42,0,4.85,0,6.6H219c2.23,0,3.13-1.36,3.13-2.71a3.55,3.55,0,0,0-3.67-3.84Zm2.71-.89a3.32,3.32,0,0,0,1-2.44,2.4,2.4,0,0,0-2.5-2.59l-1.1,0c0,.6,0,1.43,0,2.39,0,.8-.07,1.64-.07,2.48h1.19a8.91,8.91,0,0,1,1.5.14"/><path id="_Compound_Path_19" data-name="&lt;Compound Path&gt;" class="cls-3" d="M256,68.72v-.36c0-2,.05-3.87,0-5.59,0-3.78.2-7.38-.61-8.39l.17-.39,4.27-.1c2.24,0,4.95.89,4.95,4.53a4.56,4.56,0,0,1-3.1,4.28c.54.27,4.52,5.54,5.15,6h-3a33,33,0,0,0-4.41-5.6,5.42,5.42,0,0,1-1.19-.13c.05,2.26.12,5,.21,5.73Zm6.8-9.8c0-2.89-1.89-3.85-3.28-3.8l-1.22,0c-.07.81-.07,4-.07,6v.67a3.07,3.07,0,0,0,1.41.2,3,3,0,0,0,3.16-3.08"/><path id="_Path_22" data-name="&lt;Path&gt;" class="cls-3" d="M277.68,68.72v-.36c0-1.66,0-2.91,0-3.83,0-1.43,0-2.17,0-2.55a3.41,3.41,0,0,1-.46-.69l-2.16-3.76c-1.27-2.26-1.38-2.84-2.19-3.15L273,54a4.11,4.11,0,0,1,1.56-.31,1.84,1.84,0,0,1,1.32.41,60,60,0,0,0,3.25,6.35,4.81,4.81,0,0,1,.38-.83l1.84-3.29a1.77,1.77,0,0,0,0-1.94l.16-.39a3.32,3.32,0,0,1,1.26-.31A2.92,2.92,0,0,1,284,54a9.69,9.69,0,0,1-1.29,3.07L280,61.49c0,.87,0,2.12,0,3.38a33.29,33.29,0,0,0,.17,3.85Z"/><path id="_Path_23" data-name="&lt;Path&gt;" class="cls-3" d="M295.92,66.74a1.26,1.26,0,0,1,.25-.73c.18.64,1.91,1.43,3.32,1.43s2.81-.45,2.81-2.06c0-3-6.32-3.62-6.32-7.72a4,4,0,0,1,4.13-4,6.36,6.36,0,0,1,3.53,1,3,3,0,0,1-.39,2.44l-.42-.1a3.22,3.22,0,0,0-2.95-2.14,2,2,0,0,0-2.18,1.9c0,2.93,6.71,3.47,6.71,8,0,2.33-1.94,4.27-4.83,4.27-1.94,0-3.66-1.09-3.66-2.26"/><polygon id="_Path_24" data-name="&lt;Path&gt;" class="cls-1" points="305.15 47.73 308.23 47.73 308.23 48.4 307.08 48.4 307.08 51.52 306.29 51.52 306.29 48.4 305.15 48.4 305.15 47.73"/><polygon id="_Path_25" data-name="&lt;Path&gt;" class="cls-1" points="308.66 47.73 309.82 47.73 310.5 50.72 310.51 50.72 311.19 47.73 312.33 47.73 312.33 51.52 311.6 51.52 311.6 48.35 311.58 48.35 310.88 51.52 310.1 51.52 309.41 48.36 309.4 48.36 309.4 51.52 308.66 51.52 308.66 47.73"/><rect id="_Path_26" data-name="&lt;Path&gt;" class="cls-4" x="79.82" y="4.38" width="240.37" height="116.25"/></g></svg>