<?xml version="1.0" encoding="utf-8"?>
<!-- Generator: Adobe Illustrator 16.0.0, SVG Export Plug-In . SVG Version: 6.00 Build 0)  -->
<!DOCTYPE svg PUBLIC "-//W3C//DTD SVG 1.1//EN" "http://www.w3.org/Graphics/SVG/1.1/DTD/svg11.dtd">
<svg version="1.1" id="Layer_1" xmlns="http://www.w3.org/2000/svg" xmlns:xlink="http://www.w3.org/1999/xlink" x="0px" y="0px"
	 width="300px" height="101px" viewBox="0 0 300 101" enable-background="new 0 0 300 101" xml:space="preserve">
<path fill="#FFFFFF" d="M74.972,77.29h-2.969v8.009c0,0.402-0.185,0.648-0.588,0.648h-1.702c-0.399,0-0.586-0.216-0.586-0.648
	V65.324c0-0.496,0.157-0.681,0.62-0.681h4.452c2.784,0,5.166,0.555,6.523,2.227c0.836,1.021,1.269,2.382,1.269,4.021
	c0,2.967-1.885,5.071-4.328,5.904l0.03,0.063l5.04,8.441c0.187,0.278,0.126,0.648-0.307,0.648H80.57
	c-0.464,0-0.743-0.152-0.96-0.557L74.972,77.29z M73.982,66.839h-1.979v8.287h2.382c2.719,0,4.698-1.454,4.698-4.206
	C79.083,67.891,77.167,66.839,73.982,66.839 M105.152,85.391c0,0.371-0.154,0.557-0.619,0.557h-10.79
	c-0.526,0-0.649-0.123-0.649-0.648V65.261c0-0.433,0.154-0.618,0.586-0.618h10.884c0.464,0,0.527,0.217,0.496,0.589l-0.125,1.172
	c-0.029,0.435-0.308,0.495-0.835,0.495h-8.131v6.773h7.267c0.432,0,0.618,0.186,0.618,0.555v1.113c0,0.434-0.154,0.559-0.586,0.559
	h-7.299v7.792h8.534c0.462,0,0.649,0.154,0.649,0.527V85.391z M140.341,65.292l-5.938,20.006c-0.122,0.463-0.37,0.648-0.803,0.648
	h-1.454c-0.403,0-0.649-0.152-0.803-0.678l-4.208-16.018h-0.03l-4.235,16.018c-0.155,0.525-0.403,0.678-0.836,0.678h-1.423
	c-0.43,0-0.616-0.094-0.803-0.709l-5.845-19.822c-0.03-0.124-0.06-0.248-0.06-0.37c0-0.218,0.122-0.403,0.462-0.403h1.917
	c0.588,0,0.803,0.154,0.929,0.649l4.329,16.263h0.03l4.174-16.294c0.124-0.525,0.37-0.618,0.867-0.618h1.329
	c0.434,0,0.651,0.217,0.743,0.589l4.265,16.324h0.063l4.392-16.263c0.154-0.527,0.402-0.649,0.864-0.649h1.669
	c0.342,0,0.464,0.154,0.464,0.37C140.403,65.106,140.374,65.198,140.341,65.292 M161.928,85.391l-2.041-5.752h-8.011l-2.132,5.785
	c-0.155,0.4-0.278,0.523-0.71,0.523h-1.826c-0.433,0-0.371-0.338-0.277-0.615l7.76-20.256c0.095-0.248,0.278-0.433,0.558-0.433
	h1.638c0.278,0,0.464,0.123,0.558,0.37l7.637,20.286c0.123,0.341,0.123,0.648-0.4,0.648h-1.919
	C162.234,85.947,162.082,85.854,161.928,85.391 M159.143,77.509l-2.473-7.082c-0.37-1.082-0.587-1.763-0.711-2.195h-0.031
	c-0.155,0.492-0.369,1.114-0.771,2.256l-2.538,7.021H159.143z M180.417,77.29h-2.968v8.009c0,0.402-0.185,0.648-0.587,0.648h-1.702
	c-0.399,0-0.587-0.216-0.587-0.648V65.324c0-0.496,0.157-0.681,0.62-0.681h4.45c2.785,0,5.168,0.555,6.526,2.227
	c0.835,1.021,1.268,2.382,1.268,4.021c0,2.967-1.886,5.071-4.328,5.904l0.03,0.063l5.038,8.441c0.188,0.278,0.126,0.648-0.308,0.648
	h-1.854c-0.465,0-0.743-0.152-0.961-0.557L180.417,77.29z M179.43,66.839h-1.98v8.287h2.383c2.719,0,4.697-1.454,4.697-4.206
	C184.529,67.891,182.613,66.839,179.43,66.839 M212.269,83.691c-1.765,1.607-4.517,2.256-7.608,2.256h-5.378
	c-0.589,0-0.773-0.186-0.773-0.741V65.509c0-0.618,0.214-0.866,0.896-0.866h3.898c3.925,0,5.967,0.341,7.916,1.547
	c2.626,1.638,4.235,4.853,4.235,9.214C215.454,78.93,214.311,81.836,212.269,83.691 M209.766,68.446
	c-1.454-1.175-3.341-1.484-5.445-1.484h-2.938V83.66h2.663c2.719,0,4.635-0.277,6.089-1.731c1.483-1.517,2.257-3.772,2.257-6.556
	C212.392,72.406,211.495,69.837,209.766,68.446 M235.277,80.383c0-1.731-1.207-2.723-2.723-3.525l-3.928-2.101
	c-2.043-1.114-3.401-2.786-3.401-5.012c0-3.555,3.308-5.471,6.556-5.471c1.824,0,3.308,0.246,4.917,0.925
	c0.311,0.126,0.495,0.281,0.495,0.529c0,0.093-0.033,0.185-0.063,0.276l-0.465,1.269c-0.09,0.246-0.245,0.34-0.434,0.34
	c-0.122,0-0.244-0.031-0.369-0.094c-1.236-0.525-2.689-0.895-3.926-0.895c-1.731,0-3.743,0.803-3.743,2.875
	c0,1.609,1.113,2.507,2.412,3.186l3.31,1.763c2.412,1.298,4.206,2.844,4.206,5.72c0,4.053-3.372,6.091-7.176,6.091
	c-1.668,0-3.492-0.31-5.193-0.866c-0.403-0.121-0.495-0.432-0.403-0.771l0.403-1.392c0.123-0.404,0.433-0.464,0.803-0.31
	c1.391,0.527,2.94,0.898,4.391,0.898C233.05,83.816,235.277,82.823,235.277,80.383 M256.245,70.273l-5.784,3.335l5.799,3.342
	l0.893-0.509l4.898-2.821L256.245,70.273z M252.919,73.623l3.334,5.782l3.344-5.795l-0.512-0.893l-2.821-4.899L252.919,73.623z
	 M271.847,71.017l-4.497,2.594l4.504,2.597l0.693-0.397l3.809-2.193L271.847,71.017z M269.26,73.62l2.59,4.496l2.597-4.505
	l-0.396-0.692l-2.192-3.809L269.26,73.62z M286.06,74.898l2.224-1.284l-2.214-1.275l-1.282-2.228l-1.274,2.213l-2.23,1.286
	l2.218,1.278l1.281,2.224L286.06,74.898z M46.448,76.95l5.782-3.333l-5.795-3.344l-0.892,0.512l-4.899,2.821L46.448,76.95z
	 M49.775,73.603l-3.335-5.785l-3.34,5.795l0.51,0.892l2.821,4.9L49.775,73.603z M30.849,76.207l4.497-2.592l-4.505-2.598
	l-0.694,0.397l-3.809,2.194L30.849,76.207z M33.435,73.605l-2.59-4.495l-2.597,4.503l0.396,0.694l2.194,3.809L33.435,73.605z
	 M17.837,75.629l3.494-2.014l-3.502-2.021l-0.54,0.311l-2.96,1.703L17.837,75.629z M19.846,73.606l-2.012-3.495l-2.022,3.502
	l0.311,0.538l1.703,2.961L19.846,73.606z M85.123,40.992H70.313l-3.352,9.102h-4.878l13.668-35.351h4.105l13.446,35.351h-4.878
	L85.123,40.992z M71.793,36.983H83.69l-5.826-16.096h-0.147L71.793,36.983z M173.449,14.743h-4.78v35.351h21.507V46.33h-16.727
	V14.743z M287.484,18.168v-3.426h-24.082v3.766h18.616l-18.884,28.016v3.568h25.148V46.33h-19.76L287.484,18.168z M219.736,46.33
	V18.509h18.401v-3.766h-23.183v35.351h23.451V46.33H219.736z M237.507,29.943h-12.983v3.762h12.983V29.943z M141.613,34.41
	c-1.221-1.635-2.901-2.679-5.037-3.132c1.637-0.6,2.955-1.519,3.958-2.755c1.003-1.239,1.505-2.643,1.505-4.212
	c0-3.188-1.042-5.581-3.132-7.172c-2.088-1.596-4.976-2.396-8.666-2.396h-11.532v35.351h13.062c3.593,0,6.436-0.855,8.534-2.562
	c2.095-1.707,3.142-4.181,3.142-7.419C143.446,37.945,142.837,36.044,141.613,34.41 M136.844,44.721
	c-1.215,1.074-2.906,1.609-5.073,1.609h-8.278V18.509h6.748c2.267,0,4.001,0.473,5.207,1.417c1.206,0.948,1.809,2.376,1.809,4.289
	c0,1.746-0.559,3.108-1.675,4.09c-1.116,0.978-2.565,1.469-4.346,1.469h-3.076v3.761h4.313c2.105,0,3.664,0.588,4.675,1.768
	c1.013,1.176,1.515,2.798,1.515,4.86C138.663,42.128,138.058,43.649,136.844,44.721 M25.667,50.093h4.784V22.354h-4.784V50.093z
	 M14.329,18.509h27.484v-3.763H14.329V18.509z"/>
</svg>
